{"title":"Caddyshack 1980 BluRay 1080p DTS x264-LoNeWoLf","uid":6077079,"size":8629820726,"categoryP":"video","categoryS":"hd___movies","magnet":"?xt=urn:btih:f748977264dc809aacaee5d85fdaaa3733fe47c3&amp;dn=Caddyshack+1980+BluRay+1080p+DTS+x264-LoNeWoLf&amp;tr=udp%3A%2F%2Ftracker.openbittorrent.com%3A80&amp;tr=udp%3A%2F%2Fopen.demonii.com%3A1337&amp;tr=udp%3A%2F%2Ftracker.coppersurfer.tk%3A6969&amp;tr=udp%3A%2F%2Fexodus.desync.com%3A6969","seeders":1,"leechers":1,"uploader":"bobnjeff","files":1,"time":1293921776,"description":"Caddyshack 1980 BluRay 1080p DTS x264-LoNeWoLf\n\nEncoded by Tequila-Bob a.k.a. bobnjeff a.k.a.LoNeWoLf\n\nSource - NTSC BluRay Disc.\n\nMovie has been tested and is DXVA Compliant\n\n\n &lt;a href=&quot;\nhttp://www.imdb.com/title/tt0080487/&quot; rel=&quot;nofollow&quot; target=&quot;_NEW&quot;&gt;\nhttp://www.imdb.com/title/tt0080487/&lt;/a&gt;\n\nGenres:Comedy | Sport \n\nRated: R for crude sexual humor, drug references and some nudity\n\nTaglines:The Snobs Against The Slobs!\n\nRelease Date:25 July 1980 (USA)\n\n\nCaddyshack (1980) \n  98 min  -  Comedy | Sport   -  25 July 1980 (USA) \n  7.3/10 X  Users: 7.3/10 (36,152 votes) 219 reviews | Critics: 53 reviews \n  An exclusive golf course has to deal with a brash new member and a destructive dancing   gopher. \n\nDirector: Harold Ramis\nWriters: Brian Doyle-Murray, Harold Ramis,  \nStars:Chevy Chase, Rodney Dangerfield , Bill Murray\n\nStoryline\nComical goings on at an exclusive golf club. All the members are wealthy and eccentric, and all the staff are poor and slightly less eccentric. The main character is 'Danny'; he's a caddy who will do almost anything to raise money to go to college. There are many subplots, including the assistant green keeper's pursuit of a cute \n\n\n\n\nCast\nCast overview, first billed only: \n  Chevy Chase  ...  Ty Webb  \n  Rodney Dangerfield  ...  Al Czervik  \n  Ted Knight  ...  Judge Elihu Smails  \n  Michael O'Keefe  ...  Danny Noonan  \n  Bill Murray  ...  Carl Spackler  \n  Sarah Holcomb  ...  Maggie O'Hooligan  \n  Scott Colomby  ...  Tony D'Annunzio  \n  Cindy Morgan  ...  Lacey Underall  \n  Dan Resin  ...  Dr. Beeper  \n  Henry Wilcoxon  ...  The Bishop  \n  Elaine Aiken  ...  Mrs. Noonan  \n  Albert Salmi  ...  Mr. Noonan  \n  Ann Ryerson  ...  Grace  \n  Brian Doyle-Murray  ...  Lou Loomis  \n  Hamilton Mitchell  ...  Motormouth  \n\n[img]http://torrent-stats.info/e5d8/fe242580.png[/img]\n\n\nSee the full size 1920x1072 PNG files at the link below\n\n &lt;a href=&quot;\nhttp://s1015.photobucket.com/albums/af279/tequila-bob/Caddyshack%201980/&quot; rel=&quot;nofollow&quot; target=&quot;_NEW&quot;&gt;\nhttp://s1015.photobucket.com/albums/af279/tequila-bob/Caddyshack%201980/&lt;/a&gt;\n\nFormat : Matroska \nFile size : 8.04 GiB \nDuration : 1h 38mn \nOverall bit rate : 11.7 Mbps \nEncoded date : UTC 2010-12-16 02:09:41 \nWriting application : mkvmerge v4.4.0 ('Die Wiederkehr') built on Oct 31 2010 21:52:48 \nWriting library : libebml v1.0.0 + libmatroska v1.0.0 \n\nVideo \nID : 1 \nFormat : AVC \nFormat/Info : Advanced Video Codec \nFormat profile : &lt;a class=&quot;__cf_email__&quot; href=&quot;/cdn-cgi/l/email-protection&quot; data-cfemail=&quot;a7efcec0cfe7eb938996&quot;&gt;[email&amp;#160;protected]&lt;/a&gt;&lt;script cf-hash='f9e31' type=&quot;text/javascript&quot;&gt;\n/* &lt;![CDATA[ */!function(){try{var t=&quot;currentScript&quot;in document?document.currentScript:function(){for(var t=document.getElementsByTagName(&quot;script&quot;),e=t.length;e--;)if(t[e].getAttribute(&quot;cf-hash&quot;))return t[e]}();if(t&amp;&amp;t.previousSibling){var e,r,n,i,c=t.previousSibling,a=c.getAttribute(&quot;data-cfemail&quot;);if(a){for(e=&quot;&quot;,r=parseInt(a.substr(0,2),16),n=2;a.length-n;n+=2)i=parseInt(a.substr(n,2),16)^r,e+=String.fromCharCode(i);e=document.createTextNode(e),c.parentNode.replaceChild(e,c)}}}catch(u){}}();/* ]]&gt; */&lt;/script&gt; \nFormat settings, CABAC : Yes \nFormat settings, ReFrames : 3 frames \nMuxing mode : Container profile=&lt;a class=&quot;__cf_email__&quot; href=&quot;/cdn-cgi/l/email-protection&quot; data-cfemail=&quot;a0f5cecbcecfd7cee0948e91&quot;&gt;[email&amp;#160;protected]&lt;/a&gt;&lt;script cf-hash='f9e31' type=&quot;text/javascript&quot;&gt;\n/* &lt;![CDATA[ */!function(){try{var t=&quot;currentScript&quot;in document?document.currentScript:function(){for(var t=document.getElementsByTagName(&quot;script&quot;),e=t.length;e--;)if(t[e].getAttribute(&quot;cf-hash&quot;))return t[e]}();if(t&amp;&amp;t.previousSibling){var e,r,n,i,c=t.previousSibling,a=c.getAttribute(&quot;data-cfemail&quot;);if(a){for(e=&quot;&quot;,r=parseInt(a.substr(0,2),16),n=2;a.length-n;n+=2)i=parseInt(a.substr(n,2),16)^r,e+=String.fromCharCode(i);e=document.createTextNode(e),c.parentNode.replaceChild(e,c)}}}catch(u){}}();/* ]]&gt; */&lt;/script&gt; \nCodec ID : V_MPEG4/ISO/AVC \nDuration : 1h 38mn \nBit rate : 10.1 Mbps \nWidth : 1 920 pixels \nHeight : 1 072 pixels \nDisplay aspect ratio : 16:9 \nFrame rate : 23.976 fps \nColor space : YUV \nChroma subsampling : 4:2:0 \nBit depth : 8 bits \nScan type : Progressive \nBits/(Pixel*Frame) : 0.205 \nStream size : 6.84 GiB (85%) \nWriting library : x264 core 98 r1649 c54c47d \nEncoding settings : cabac=1 / ref=4 / deblock=1:-3:-3 / analyse=0x3:0x113 / me=umh / subme=9 / psy=1 / psy_rd=1.00:0.15 / mixed_ref=1 / me_range=32 / chroma_me=1 / trellis=2 / 8x8dct=1 / cqm=0 / deadzone=21,11 / fast_pskip=0 / chroma_qp_offset=-3 / threads=6 / sliced_threads=0 / nr=0 / decimate=1 / interlaced=0 / constrained_intra=0 / bframes=3 / b_pyramid=1 / b_adapt=2 / b_bias=0 / direct=1 / weightb=1 / weightp=2 / keyint=250 / keyint_min=25 / scenecut=40 / intra_refresh=0 / rc_lookahead=60 / rc=2pass / mbtree=1 / bitrate=10109 / ratetol=1.0 / qcomp=0.60 / qpmin=10 / qpmax=51 / qpstep=4 / cplxblur=20.0 / qblur=0.5 / vbv_maxrate=50000 / vbv_bufsize=50000 / ip_ratio=1.40 / aq=1:1.50 / nal_hrd=none \nLanguage : English \n\nAudio \nID : 2 \nFormat : DTS \nFormat/Info : Digital Theater Systems \nCodec ID : A_DTS \nDuration : 1h 38mn \nBit rate mode : Constant \nBit rate : 1 510 Kbps \nChannel(s) : 6 channels \nChannel positions : Front: L C R, Side: L R, LFE \nSampling rate : 48.0 KHz \nBit depth : 24 bits \nVideo delay : 10ms \nStream size : 1.03 GiB (13%) \nTitle : 3/2+1 \nLanguage : English \n\nText \nID : 3 \nFormat : PGS \nCodec ID : S_HDMV/PGS \nCodec ID/Info : The same subtitle format used on BDs/HD-DVDs \nLanguage : English, French, German, Spanish, Danish, Finnish, Greek, Norwegian, Swedish \n\n\n","torrent":{"xt":"urn:btih:f748977264dc809aacaee5d85fdaaa3733fe47c3","amp;dn":"Caddyshack+1980+BluRay+1080p+DTS+x264-LoNeWoLf","amp;tr":["udp%3A%2F%2Ftracker.openbittorrent.com%3A80","udp%3A%2F%2Fopen.demonii.com%3A1337","udp%3A%2F%2Ftracker.coppersurfer.tk%3A6969","udp%3A%2F%2Fexodus.desync.com%3A6969"],"infoHash":"f748977264dc809aacaee5d85fdaaa3733fe47c3","infoHashBuffer":{"type":"Buffer","data":[247,72,151,114,100,220,128,154,172,174,229,216,95,218,170,55,51,254,71,195]},"announce":[],"urlList":[]}}